<svg clip-rule="evenodd" fill-rule="evenodd" stroke-linejoin="round" stroke-miterlimit="2" viewBox="0 0 150 150" xmlns="http://www.w3.org/2000/svg"><g fill="#fff" transform="matrix(.141135 0 0 .141135 -41.7822 -5.44442)"><path d="m1195.14 631.938c-18.97 28.067-42.48 56.364-72.02 82.845-47.3 42.408-93.05 70.498-137.952 89.719-40.417 17.302-80.145 28.095-118.416 32.595 10.241.318 20.675.28 31.296-.12 45.915-1.731 95.549-11.049 151.402-32.33 0-.001 0-.001 0-.001 54.98-20.943 98.22-51.012 132.21-80.992 29.16-25.71 52.49-53.364 70.75-81.425-18.04-4.736-37.18-8.272-57.27-10.291z"/><path d="m461.723 689.451c-21.196 5.881-40.954 13.233-59.236 21.687 36.701 39.134 86.367 74.684 149.956 98.378 24.351 9.071 52.479 17.75 81.256 21.879 42.951 6.161 81.662 6.96 117.083 3.733-55.043-6.589-113.959-23.882-178.621-58.697h-.001c-27.546-14.834-52.801-33.953-74.044-52.14h-.001c-13.153-11.263-25.264-22.911-36.392-34.84z"/><path d="m741.871 803.582c-41.924-29.552-82.684-68.985-121.251-123.509 0 0-.001-.001-.001-.001-18.064-25.543-32.171-53.905-43.099-79.646v-.001c-3.489-8.218-6.683-16.405-9.597-24.548-17.058-5.232-33.656-9.198-49.525-12.242-38.174-7.321-74.326-8.852-107.694-6.121 20.985 49.377 55.377 99.852 106.923 143.989 19.739 16.899 43.161 34.73 68.757 48.514 55.952 30.125 107.325 46.324 155.487 53.565z"/><path d="m1051.67 538.305c-5.77 24.207-13.85 49.264-25 74.739-25.46 58.207-55.436 102.739-88.322 138.849-18.134 19.911-37.045 37.493-56.548 52.713 29.809-5.154 60.459-14.369 91.562-27.683 42.238-18.083 85.228-44.582 129.738-84.479v-.001c43.81-39.268 73.39-82.845 94.37-123.022 17.99-34.455 29.85-68.638 36.84-101.382-53.33 5.895-111.56 24.316-168.66 60.988-4.59 2.949-9.27 6.042-13.98 9.278z"/><path d="m910.018 449.265c6.771 31.36 10.826 65.776 10.092 102.984-1.246 63.519-11.903 116.135-28.466 162.08-8.934 24.78-19.407 47.785-31.273 68.925 19.272-14.736 37.931-31.944 55.797-51.561 30.938-33.971 59.068-75.913 83.019-130.672.001 0 .001-.001.001-.001 23.582-53.901 32.432-105.82 34.862-151.081 2.08-38.814-1.3-74.84-8.52-107.53-40.919 24.398-81.26 59.386-115.512 106.856zm15.061 235.403c10.508-38.826 17.05-82.19 18.027-131.966.692-35.093-2.662-67.824-8.498-97.993v-.001c22.738-29.886 48.048-54.229 74.242-73.594 2.62 21.336 3.5 43.914 2.23 67.592-2.3 42.865-10.63 92.047-32.963 143.094-.001.002-.001.003-.002.004-15.904 36.362-33.715 66.803-53.036 92.864z"/><path d="m774.346 789.204c-36.622-61.705-63.008-136.299-66.489-236.73 0-.001 0-.001 0-.002-.585-16.937.254-33.928 1.941-50.322-14.157-13.739-28.529-25.841-42.611-36.563-30.926-23.547-62.618-41.008-93.714-53.413-3.185 53.556 5.147 114.063 31.662 176.529 10.154 23.919 23.192 50.311 39.978 74.046 40.919 57.851 84.447 97.661 129.233 126.455zm-62.773-81.599c-16.23-16.935-32.148-36.175-47.682-58.137-15.806-22.349-28.023-47.231-37.585-69.752-19.467-45.864-28.564-90.599-30.203-131.987 19.12 9.825 38.285 21.793 57.151 36.157 10.782 8.21 21.745 17.269 32.635 27.307-1.072 13.838-1.505 27.974-1.018 42.074v.003c2.053 59.232 11.76 109.864 26.701 154.334z"/><path d="m815.482 302.654c-32.057 43.021-58.3 98.174-70.421 164.942-4.639 25.568-8.226 54.785-7.221 83.839 3.741 107.954 35.558 184.19 77.785 246.862 18.985-27.289 35.05-58.786 47.797-94.142 15.582-43.224 25.521-92.738 26.694-152.495 0-.001 0-.001 0-.002 1.16-58.822-10.537-110.174-25.612-152.92-12.928-36.657-29.836-68.647-49.022-96.084z"/></g></svg>