<svg clip-rule="evenodd" fill-rule="evenodd" stroke-linejoin="round" stroke-miterlimit="2" viewBox="0 0 78 77" xmlns="http://www.w3.org/2000/svg"><g fill-rule="nonzero"><path d="m12.16 14.4-11.072-14.4h7.424l7.424 10.432 7.488-10.432h7.04l-10.944 14.336 12.224 16h-7.488l-8.448-11.84-8.576 11.84h-7.232z" transform="translate(-.048 28.32)"/><path d="m64.456 15.936c0 2.368-.384 4.48-1.216 6.464s-1.984 3.648-3.456 5.056c-1.536 1.472-3.264 2.56-5.248 3.328-1.984.832-4.16 1.216-6.464 1.216s-4.48-.384-6.464-1.216c-1.984-.768-3.712-1.856-5.184-3.328-1.472-1.408-2.56-3.072-3.392-5.056s-1.28-4.096-1.28-6.464.448-4.48 1.28-6.464c.832-1.92 1.92-3.584 3.392-4.992s3.2-2.496 5.184-3.328c1.984-.768 4.16-1.152 6.464-1.152s4.48.384 6.464 1.152c1.984.832 3.712 1.92 5.248 3.328 1.472 1.408 2.624 3.072 3.456 4.992.832 1.984 1.216 4.096 1.216 6.464zm-6.272 0c0-1.472-.192-2.816-.64-4.16s-1.152-2.496-1.984-3.52c-.832-.96-1.92-1.792-3.136-2.368-1.28-.576-2.752-.896-4.352-.896s-3.072.32-4.288.896c-1.28.576-2.368 1.408-3.2 2.368-.832 1.024-1.472 2.176-1.92 3.52s-.704 2.688-.704 4.16.256 2.816.704 4.16 1.088 2.496 1.92 3.52 1.92 1.856 3.2 2.432c1.216.576 2.688.896 4.288.896s3.072-.32 4.352-.896c1.216-.576 2.304-1.408 3.136-2.432s1.536-2.176 1.984-3.52.64-2.688.64-4.16z" transform="translate(-.048 26.656)"/><path d="m70.712 5.632h-20.224v-5.632h26.56v45.312h-6.336z" transform="translate(-.048 13.344)"/></g></svg>