<svg clip-rule="evenodd" fill-rule="evenodd" stroke-linejoin="round" stroke-miterlimit="2" viewBox="0 0 504 504" xmlns="http://www.w3.org/2000/svg"><path d="m82.44 66.102c-7.621 13.252-21.923 22.184-38.294 22.184-.639 0-1.275-.014-1.908-.041l-7.209-22.143zm-80.835-10.141 18.837-13.706 6.301 19.394.183.562 1.264 3.891h.003l6.921 21.257c-16.182-3.37-29.126-15.611-33.509-31.398zm75.254-41.444c7.101 7.835 11.43 18.229 11.43 29.626 0 5.438-.986 10.647-2.787 15.459h-23.292l7.749-23.847-.001-.001zm-57.037-7.208 18.805 13.7-15.936 11.578-.003-.004-22.431 16.32c-.168-1.564-.254-3.152-.254-4.76 0-15.378 7.88-28.93 19.819-36.834zm6.287-3.462c5.508-2.472 11.613-3.847 18.037-3.847 10.383 0 19.934 3.593 27.476 9.602l-7.194 22.135-16.836-12.232.003-.005z" transform="matrix(5.6168 -.884835 .884835 5.6168 -35.0184 43.1197)"/></svg>