<svg clip-rule="evenodd" fill-rule="evenodd" stroke-linejoin="round" stroke-miterlimit="2" viewBox="0 0 127 16" xmlns="http://www.w3.org/2000/svg"><g fill-rule="nonzero" transform="matrix(.654884 0 0 .374297 -57.9658 -31.6137)"><path d="m98.215 117.596h2.474l-4.81-13.514 4.535-12.647h-2.501l-3.188 9.714h-.11l-3.353-9.714h-2.474l4.562 12.551-4.837 13.61h2.501l3.491-10.628h.11z"/><path d="m104.675 104.275c0-6.781 1.072-10.099 3.903-10.099 2.886 0 4.095 3.414 4.095 10.435 0 6.829-1.044 10.147-3.93 10.147-2.859 0-4.068-3.462-4.068-10.483zm3.903 13.753c4.535 0 6.294-5.626 6.294-13.705 0-7.983-1.567-13.369-6.129-13.369-4.536 0-6.267 5.53-6.267 13.609 0 8.031 1.566 13.465 6.102 13.465z"/><path d="m125.399 88.116c-1.319 3.222-5.47 14.62-5.47 27.893v1.587h2.144v-1.587c0-12.888 4.205-23.997 5.855-27.796l-.55-3.751h-10.775v3.606h5.443c1.566 0 2.748-.096 3.353-.144z"/><path d="m146.068 121.251c-1.457 1.683-3.765 2.693-5.937 2.693-6.184 0-9.592-6.396-9.592-16.351 0-11.782 5.305-21.544 12.148-21.544 5.745 0 9.566 5.915 9.566 15.004 0 7.646-2.364 13.753-5.992 13.753-1.402 0-2.254-1.058-2.557-2.5h-.109c-.77 1.635-1.897 2.597-3.271 2.597-2.749 0-3.903-3.319-3.903-7.406 0-7.887 3.078-12.311 6.431-12.311 1.292 0 2.612.529 3.409 1.394l-.797 9.089c-.11 1.347-.22 2.982-.22 3.799 0 1.539.412 2.261 1.264 2.261 2.336 0 3.738-4.713 3.738-10.292 0-7.934-3.023-12.214-7.861-12.214-5.442 0-9.84 8.415-9.84 18.033 0 8.801 2.749 13.514 7.916 13.514 1.759 0 3.656-.962 4.783-2.309zm-5.387-9.378c1.264 0 2.336-1.347 2.721-2.934.028-.625.083-1.971.138-2.5l.632-7.791c-.358-.24-.907-.385-1.485-.385-2.501 0-4.287 3.655-4.287 8.56 0 3.367.714 5.05 2.281 5.05z"/><path d="m167.864 103.457c0-8.512-2.143-12.503-5.552-12.503-1.896 0-3.161 1.442-3.875 3.126h-.11l-.467-2.645h-1.595v35.49h2.117v-9.714c.742.289 1.594.433 2.364.433 4.287 0 7.118-5.05 7.118-14.187zm-9.482 10.291v-15.917c.522-1.684 1.594-3.655 3.436-3.655 1.979 0 3.875 2.356 3.875 9.714 0 6.973-1.677 10.436-5.057 10.436-.605 0-1.622-.193-2.254-.578z"/><path d="m173.032 104.275c0-6.781 1.072-10.099 3.903-10.099 2.886 0 4.095 3.414 4.095 10.435 0 6.829-1.044 10.147-3.93 10.147-2.859 0-4.068-3.462-4.068-10.483zm3.903 13.753c4.535 0 6.294-5.626 6.294-13.705 0-7.983-1.567-13.369-6.129-13.369-4.535 0-6.267 5.53-6.267 13.609 0 8.031 1.567 13.465 6.102 13.465z"/><path d="m194.031 110.671c0 2.212-1.017 4.135-3.106 4.135-1.732 0-3.161-1.25-4.068-2.885l-1.319 2.789c.934 1.683 2.803 3.318 5.277 3.318 3.601 0 5.332-3.847 5.332-7.453 0-8.897-7.558-6.541-7.558-12.408 0-2.116.907-3.895 2.941-3.895 1.154 0 2.363.866 3.051 2.116l1.374-2.597c-.907-1.683-2.584-2.789-4.37-2.789-3.271 0-5.113 3.51-5.113 7.261 0 8.849 7.559 6.493 7.559 12.408z"/><path d="m204.311 117.836c1.786 0 2.776-.625 3.353-1.202l-.605-2.982c-.385.433-1.072.914-2.281.914-1.319 0-2.172-1.202-2.172-4.136v-15.966h4.123v-3.029h-4.123v-6.877h-1.456l-.66 6.78-2.226.722v2.404h2.226v16.159c0 4.953 1.347 7.213 3.821 7.213z"/><path d="m220.005 112.69c-.632.962-1.979 1.972-3.463 1.972-2.996 0-4.535-2.452-4.728-8.896h9.51c.11-1.684.165-3.223.165-4.521 0-6.204-1.896-10.243-5.442-10.243-3.326 0-6.349 3.895-6.349 13.369 0 9.762 2.309 13.561 6.569 13.561 2.144 0 3.71-1.058 4.7-2.356zm-4.15-18.466c2.418 0 3.518 2.501 3.518 6.973 0 .288 0 .962-.028 1.491h-7.503c.192-6.3 2.061-8.464 4.013-8.464z"/><path d="m226.821 104.275c0-6.781 1.072-10.099 3.903-10.099 2.886 0 4.096 3.414 4.096 10.435 0 6.829-1.045 10.147-3.931 10.147-2.858 0-4.068-3.462-4.068-10.483zm3.903 13.753c4.536 0 6.295-5.626 6.295-13.705 0-7.983-1.567-13.369-6.13-13.369-4.535 0-6.266 5.53-6.266 13.609 0 8.031 1.566 13.465 6.101 13.465z"/><path d="m239.877 114.71c0 1.587.742 2.886 1.649 2.886.99 0 1.732-1.299 1.732-2.886 0-1.731-.742-3.029-1.732-3.029-.907 0-1.649 1.298-1.649 3.029z"/><path d="m257.056 95.041h-.11c-.55-2.356-1.732-4.135-3.958-4.135-2.336 0-3.463 2.212-3.876 3.318h-.11l-.439-2.789h-1.649v26.161h2.143v-18.707c.303-2.261 1.512-4.665 3.381-4.665 1.924 0 2.969 2.26 2.969 6.396v16.976h2.144v-18.996c.384-2.116 1.566-4.376 3.435-4.376 1.842 0 2.941 2.068 2.941 6.107v17.265h2.117v-18.034c0-5.723-1.649-8.656-4.618-8.656-2.336 0-3.793 2.019-4.37 4.135z"/><path d="m280.034 112.69c-.632.962-1.979 1.972-3.463 1.972-2.996 0-4.535-2.452-4.728-8.896h9.51c.11-1.684.165-3.223.165-4.521 0-6.204-1.896-10.243-5.442-10.243-3.326 0-6.349 3.895-6.349 13.369 0 9.762 2.309 13.561 6.569 13.561 2.144 0 3.71-1.058 4.7-2.356zm-4.15-18.466c2.418 0 3.518 2.501 3.518 6.973 0 .288 0 .962-.028 1.491h-7.503c.192-6.3 2.061-8.464 4.013-8.464z"/></g></svg>