<svg clip-rule="evenodd" fill-rule="evenodd" stroke-linejoin="round" stroke-miterlimit="2" viewBox="0 0 126 17" xmlns="http://www.w3.org/2000/svg"><g fill-rule="nonzero" transform="matrix(.662066 0 0 .482118 -58.5979 -39.0795)"><path d="m98.105 109.433h2.447l-4.758-10.491 4.486-9.82h-2.474l-3.154 7.542h-.109l-3.317-7.542h-2.446l4.513 9.745-4.785 10.566h2.474l3.453-8.251h.108z"/><path d="m104.494 99.091c0-5.264 1.06-7.841 3.861-7.841 2.854 0 4.051 2.651 4.051 8.102 0 5.302-1.034 7.878-3.888 7.878-2.828 0-4.024-2.688-4.024-8.139zm3.861 10.678c4.486 0 6.226-4.369 6.226-10.641 0-6.197-1.55-10.379-6.063-10.379-4.486 0-6.199 4.294-6.199 10.566 0 6.235 1.55 10.454 6.036 10.454z"/><path d="m124.993 86.546c-1.305 2.502-5.41 11.35-5.41 21.655v1.232h2.121v-1.232c0-10.006 4.159-18.631 5.791-21.58l-.544-2.912h-10.658v2.8h5.384c1.549 0 2.718-.075 3.316-.112z"/><path d="m145.439 112.27c-1.441 1.307-3.725 2.091-5.873 2.091-6.117 0-9.488-4.966-9.488-12.694 0-9.147 5.247-16.726 12.016-16.726 5.683 0 9.462 4.592 9.462 11.648 0 5.937-2.338 10.678-5.927 10.678-1.387 0-2.23-.821-2.529-1.941h-.108c-.762 1.269-1.876 2.016-3.236 2.016-2.718 0-3.86-2.576-3.86-5.75 0-6.123 3.045-9.558 6.362-9.558 1.277 0 2.582.411 3.371 1.083l-.789 7.057c-.108 1.045-.217 2.314-.217 2.949 0 1.195.408 1.755 1.251 1.755 2.31 0 3.697-3.659 3.697-7.99 0-6.16-2.991-9.483-7.776-9.483-5.383 0-9.733 6.534-9.733 14.001 0 6.832 2.719 10.491 7.83 10.491 1.74 0 3.616-.747 4.731-1.792zm-5.329-7.28c1.25 0 2.311-1.046 2.691-2.278.028-.485.082-1.53.136-1.941l.626-6.048c-.354-.187-.898-.299-1.469-.299-2.474 0-4.241 2.837-4.241 6.646 0 2.613.707 3.92 2.257 3.92z"/><path d="m165.557 91.922h-.108c-.544-1.829-1.713-3.21-3.915-3.21-2.311 0-3.426 1.717-3.834 2.576h-.109l-.435-2.166h-1.631v20.311h2.121v-14.524c.299-1.754 1.495-3.621 3.344-3.621 1.903 0 2.936 1.755 2.936 4.965v13.18h2.121v-14.748c.38-1.642 1.549-3.397 3.398-3.397 1.822 0 2.909 1.605 2.909 4.741v13.404h2.094v-14.001c0-4.443-1.632-6.72-4.568-6.72-2.311 0-3.752 1.568-4.323 3.21z"/><path d="m186.519 104.691c-.68 1.382-2.012 2.763-3.698 2.763-1.712 0-2.664-1.456-2.664-3.248 0-3.062 2.8-4.256 6.362-4.07zm-3.072-15.867c-3.072 0-4.459 2.352-4.976 3.322l1.55 1.681c.435-.971 1.387-2.465 3.371-2.465 1.958 0 3.127.971 3.127 4.294v2.203c-5.247-.112-8.455 2.091-8.455 6.571 0 2.763 1.522 5.413 4.268 5.413 2.501 0 3.698-1.605 4.405-2.725h.108c.354 1.381 1.224 2.464 2.692 2.464.272 0 .571-.075.761-.224v-2.128h-.381c-1.033 0-1.44-1.232-1.44-3.062v-9.184c0-4.256-1.876-6.16-5.03-6.16z"/><path d="m194.403 109.433h2.121v-20.311h-2.121zm-.598-26.247c0 1.195.68 2.091 1.523 2.091.897 0 1.577-.896 1.577-2.091 0-1.232-.68-2.128-1.577-2.128-.843 0-1.523.896-1.523 2.128z"/><path d="m201.717 81.095v24.305c0 2.651.979 4.294 3.018 4.294.571 0 1.305-.112 1.848-.448v-2.464c-.271.187-.679.411-1.223.411-1.115 0-1.55-.784-1.55-2.577v-23.521z"/><path d="m210.77 99.091c0-5.264 1.061-7.841 3.861-7.841 2.855 0 4.051 2.651 4.051 8.102 0 5.302-1.033 7.878-3.888 7.878-2.827 0-4.024-2.688-4.024-8.139zm3.861 10.678c4.486 0 6.226-4.369 6.226-10.641 0-6.197-1.55-10.379-6.063-10.379-4.486 0-6.199 4.294-6.199 10.566 0 6.235 1.55 10.454 6.036 10.454z"/><path d="m223.684 107.193c0 1.232.735 2.24 1.632 2.24.979 0 1.713-1.008 1.713-2.24 0-1.344-.734-2.353-1.713-2.353-.897 0-1.632 1.009-1.632 2.353z"/><path d="m229.747 99.576c0 7.318 2.366 10.193 5.982 10.193 2.528 0 3.779-1.232 4.377-2.166l-1.305-2.016c-.598.934-1.523 1.606-2.882 1.606-2.474 0-3.997-2.203-3.997-7.99 0-5.675 1.604-7.841 3.997-7.841 1.441 0 2.311.822 2.909 1.681l1.414-2.129c-.544-.858-1.849-2.128-4.214-2.128-3.616 0-6.281 3.323-6.281 10.79z"/><path d="m244.755 99.091c0-5.264 1.06-7.841 3.861-7.841 2.854 0 4.051 2.651 4.051 8.102 0 5.302-1.034 7.878-3.888 7.878-2.828 0-4.024-2.688-4.024-8.139zm3.861 10.678c4.486 0 6.226-4.369 6.226-10.641 0-6.197-1.55-10.379-6.063-10.379-4.486 0-6.199 4.294-6.199 10.566 0 6.235 1.55 10.454 6.036 10.454z"/><path d="m268.598 91.922h-.108c-.544-1.829-1.713-3.21-3.915-3.21-2.311 0-3.426 1.717-3.834 2.576h-.109l-.435-2.166h-1.631v20.311h2.121v-14.524c.299-1.754 1.495-3.621 3.344-3.621 1.903 0 2.936 1.755 2.936 4.965v13.18h2.121v-14.748c.38-1.642 1.55-3.397 3.398-3.397 1.822 0 2.909 1.605 2.909 4.741v13.404h2.094v-14.001c0-4.443-1.631-6.72-4.568-6.72-2.311 0-3.752 1.568-4.323 3.21z"/></g></svg>